<?xml version="1.0" encoding="utf-8"?>
<!-- Generator: Adobe Illustrator 16.0.0, SVG Export Plug-In . SVG Version: 6.00 Build 0)  -->
<!DOCTYPE svg PUBLIC "-//W3C//DTD SVG 1.1//EN" "http://www.w3.org/Graphics/SVG/1.1/DTD/svg11.dtd" [
	<!ENTITY st0 "fill:none;stroke:#B3B3B3;stroke-miterlimit:10;">
	<!ENTITY st1 "fill:none;stroke:#000000;stroke-width:0.25;stroke-miterlimit:10;stroke-dasharray:2.0133,1.0067;">
	<!ENTITY st2 "fill:none;stroke:#000000;stroke-width:0.25;stroke-miterlimit:10;">
]>
<svg version="1.1" xmlns="http://www.w3.org/2000/svg" xmlns:xlink="http://www.w3.org/1999/xlink" x="0px" y="0px"
	 width="152.008px" height="152.002px" viewBox="0 0 152.008 152.002" style="enable-background:new 0 0 152.008 152.002;"
	 xml:space="preserve">
<g id="Layer_1">
</g>
<g id="Layer_2">
	<circle style="&st2;" cx="75.996" cy="76" r="75"/>
	<circle style="&st2;" cx="75.996" cy="76" r="74"/>
	<circle style="&st2;" cx="75.996" cy="76" r="70"/>
	<g>
		<circle style="&st1;" cx="75.996" cy="76" r="25"/>
	</g>
	<line style="&st0;" x1="75.496" y1="11" x2="75.496" y2="45"/>
	<line style="&st0;" x1="64.217" y1="12.074" x2="64.911" y2="16.014"/>
	<line style="&st0;" x1="53.296" y1="15.091" x2="54.663" y2="18.85"/>
	<line style="&st0;" x1="43.064" y1="19.958" x2="45.063" y2="23.422"/>
	<line style="&st0;" x1="33.834" y1="26.528" x2="36.404" y2="29.592"/>
	<line style="&st0;" x1="25.884" y1="34.601" x2="28.947" y2="37.172"/>
	<line style="&st0;" x1="19.456" y1="43.931" x2="22.92" y2="45.932"/>
	<line style="&st0;" x1="14.746" y1="54.236" x2="18.506" y2="55.605"/>
	<line style="&st0;" x1="11.897" y1="65.203" x2="15.838" y2="65.898"/>
	<line style="&st0;" x1="10.996" y1="76.5" x2="24.996" y2="76.5"/>
	<line style="&st0;" x1="12.071" y1="87.779" x2="16.01" y2="87.085"/>
	<line style="&st0;" x1="15.088" y1="98.701" x2="18.847" y2="97.333"/>
	<line style="&st0;" x1="19.955" y1="108.933" x2="23.42" y2="106.933"/>
	<line style="&st0;" x1="26.525" y1="118.163" x2="29.59" y2="115.592"/>
	<line style="&st0;" x1="34.599" y1="126.113" x2="37.17" y2="123.049"/>
	<line style="&st0;" x1="43.93" y1="132.541" x2="45.93" y2="129.076"/>
	<line style="&st0;" x1="54.235" y1="137.25" x2="55.604" y2="133.49"/>
	<line style="&st0;" x1="65.202" y1="140.098" x2="65.896" y2="136.158"/>
	<line style="&st0;" x1="76.496" y1="141" x2="76.496" y2="107"/>
	<line style="&st0;" x1="87.776" y1="139.926" x2="87.082" y2="135.986"/>
	<line style="&st0;" x1="98.698" y1="136.908" x2="97.33" y2="133.15"/>
	<line style="&st0;" x1="108.931" y1="132.041" x2="106.93" y2="128.577"/>
	<line style="&st0;" x1="118.162" y1="125.471" x2="115.59" y2="122.406"/>
	<line style="&st0;" x1="126.112" y1="117.396" x2="123.047" y2="114.826"/>
	<line style="&st0;" x1="132.54" y1="108.064" x2="129.074" y2="106.066"/>
	<line style="&st0;" x1="137.249" y1="97.758" x2="133.489" y2="96.393"/>
	<line style="&st0;" x1="140.097" y1="86.791" x2="136.157" y2="86.1"/>
	<line style="&st0;" x1="140.997" y1="75.496" x2="126.997" y2="75.499"/>
	<line style="&st0;" x1="139.923" y1="64.216" x2="135.983" y2="64.914"/>
	<line style="&st0;" x1="136.905" y1="53.294" x2="133.147" y2="54.666"/>
	<line style="&st0;" x1="132.037" y1="43.062" x2="128.575" y2="45.065"/>
	<line style="&st0;" x1="125.466" y1="33.832" x2="122.404" y2="36.405"/>
	<line style="&st0;" x1="117.393" y1="25.882" x2="114.824" y2="28.948"/>
	<line style="&st0;" x1="108.061" y1="19.455" x2="106.064" y2="22.92"/>
	<line style="&st0;" x1="97.754" y1="14.745" x2="96.391" y2="18.506"/>
	<line style="&st0;" x1="86.787" y1="11.897" x2="86.098" y2="15.838"/>
	<line style="&st0;" x1="74.996" y1="0.5" x2="75.996" y2="0.5"/>
	<line style="&st0;" x1="72.361" y1="0.581" x2="73.361" y2="0.546"/>
	<line style="&st0;" x1="69.731" y1="0.754" x2="70.729" y2="0.684"/>
	<line style="&st0;" x1="67.109" y1="1.019" x2="68.104" y2="0.913"/>
	<line style="&st0;" x1="64.498" y1="1.375" x2="65.489" y2="1.234"/>
	<line style="&st0;" x1="61.901" y1="1.821" x2="62.887" y2="1.647"/>
	<line style="&st0;" x1="59.321" y1="2.358" x2="60.3" y2="2.15"/>
	<line style="&st0;" x1="56.762" y1="2.985" x2="57.732" y2="2.743"/>
	<line style="&st0;" x1="54.226" y1="3.701" x2="55.187" y2="3.425"/>
	<line style="&st0;" x1="51.716" y1="4.505" x2="52.666" y2="4.195"/>
	<line style="&st0;" x1="49.235" y1="5.396" x2="50.174" y2="5.054"/>
	<line style="&st0;" x1="46.788" y1="6.373" x2="47.714" y2="5.999"/>
	<line style="&st0;" x1="44.376" y1="7.435" x2="45.288" y2="7.029"/>
	<line style="&st0;" x1="42.003" y1="8.58" x2="42.9" y2="8.143"/>
	<line style="&st0;" x1="39.671" y1="9.808" x2="40.553" y2="9.339"/>
	<line style="&st0;" x1="37.383" y1="11.116" x2="38.248" y2="10.617"/>
	<line style="&st0;" x1="35.142" y1="12.503" x2="35.989" y2="11.974"/>
	<line style="&st0;" x1="32.95" y1="13.967" x2="33.779" y2="13.41"/>
	<line style="&st0;" x1="30.812" y1="15.508" x2="31.621" y2="14.921"/>
	<line style="&st0;" x1="28.729" y1="17.122" x2="29.517" y2="16.507"/>
	<line style="&st0;" x1="26.702" y1="18.808" x2="27.469" y2="18.165"/>
	<line style="&st0;" x1="24.736" y1="20.563" x2="25.48" y2="19.894"/>
	<line style="&st0;" x1="22.833" y1="22.386" x2="23.553" y2="21.691"/>
	<line style="&st0;" x1="20.994" y1="24.274" x2="21.689" y2="23.555"/>
	<line style="&st0;" x1="19.223" y1="26.225" x2="19.893" y2="25.482"/>
	<line style="&st0;" x1="17.521" y1="28.237" x2="18.164" y2="27.471"/>
	<line style="&st0;" x1="15.89" y1="30.307" x2="16.506" y2="29.52"/>
	<line style="&st0;" x1="14.332" y1="32.433" x2="14.92" y2="31.624"/>
	<line style="&st0;" x1="12.849" y1="34.611" x2="13.408" y2="33.783"/>
	<line style="&st0;" x1="11.442" y1="36.841" x2="11.973" y2="35.993"/>
	<line style="&st0;" x1="10.115" y1="39.118" x2="10.615" y2="38.252"/>
	<line style="&st0;" x1="8.868" y1="41.439" x2="9.338" y2="40.557"/>
	<line style="&st0;" x1="7.703" y1="43.803" x2="8.142" y2="42.904"/>
	<line style="&st0;" x1="6.621" y1="46.206" x2="7.028" y2="45.293"/>
	<line style="&st0;" x1="5.624" y1="48.646" x2="5.999" y2="47.719"/>
	<line style="&st0;" x1="4.712" y1="51.118" x2="5.055" y2="50.179"/>
	<line style="&st0;" x1="3.887" y1="53.621" x2="4.197" y2="52.671"/>
	<line style="&st0;" x1="3.149" y1="56.151" x2="3.427" y2="55.191"/>
	<line style="&st0;" x1="2.501" y1="58.706" x2="2.745" y2="57.736"/>
	<line style="&st0;" x1="1.942" y1="61.282" x2="2.152" y2="60.304"/>
	<line style="&st0;" x1="1.474" y1="63.875" x2="1.649" y2="62.891"/>
	<line style="&st0;" x1="1.096" y1="66.483" x2="1.237" y2="65.494"/>
	<line style="&st0;" x1="0.81" y1="69.104" x2="0.917" y2="68.109"/>
	<line style="&st0;" x1="0.614" y1="71.732" x2="0.688" y2="70.734"/>
	<line style="&st0;" x1="0.511" y1="74.366" x2="0.55" y2="73.366"/>
	<line style="&st0;" x1="0.5" y1="77.001" x2="0.504" y2="76.001"/>
	<line style="&st0;" x1="0.581" y1="79.635" x2="0.55" y2="78.637"/>
	<line style="&st0;" x1="0.754" y1="82.265" x2="0.688" y2="81.269"/>
	<line style="&st0;" x1="1.019" y1="84.887" x2="0.917" y2="83.895"/>
	<line style="&st0;" x1="1.375" y1="87.498" x2="1.238" y2="86.51"/>
	<line style="&st0;" x1="1.821" y1="90.096" x2="1.651" y2="89.112"/>
	<line style="&st0;" x1="2.358" y1="92.676" x2="2.154" y2="91.699"/>
	<line style="&st0;" x1="2.985" y1="95.235" x2="2.747" y2="94.268"/>
	<line style="&st0;" x1="3.701" y1="97.772" x2="3.43" y2="96.812"/>
	<line style="&st0;" x1="4.505" y1="100.282" x2="4.2" y2="99.333"/>
	<line style="&st0;" x1="5.396" y1="102.762" x2="5.059" y2="101.824"/>
	<line style="&st0;" x1="6.372" y1="105.209" x2="6.003" y2="104.285"/>
	<line style="&st0;" x1="7.434" y1="107.621" x2="7.033" y2="106.711"/>
	<line style="&st0;" x1="8.579" y1="109.995" x2="8.146" y2="109.099"/>
	<line style="&st0;" x1="9.807" y1="112.327" x2="9.343" y2="111.447"/>
	<line style="&st0;" x1="11.115" y1="114.615" x2="10.62" y2="113.752"/>
	<line style="&st0;" x1="12.502" y1="116.856" x2="11.978" y2="116.011"/>
	<line style="&st0;" x1="13.967" y1="119.047" x2="13.413" y2="118.221"/>
	<line style="&st0;" x1="15.507" y1="121.186" x2="14.925" y2="120.379"/>
	<line style="&st0;" x1="17.121" y1="123.269" x2="16.511" y2="122.483"/>
	<line style="&st0;" x1="18.807" y1="125.295" x2="18.169" y2="124.531"/>
	<line style="&st0;" x1="20.562" y1="127.262" x2="19.897" y2="126.52"/>
	<line style="&st0;" x1="22.385" y1="129.166" x2="21.694" y2="128.447"/>
	<line style="&st0;" x1="24.272" y1="131.004" x2="23.558" y2="130.311"/>
	<line style="&st0;" x1="26.224" y1="132.775" x2="25.485" y2="132.107"/>
	<line style="&st0;" x1="28.235" y1="134.479" x2="27.475" y2="133.836"/>
	<line style="&st0;" x1="30.306" y1="136.109" x2="29.522" y2="135.494"/>
	<line style="&st0;" x1="32.432" y1="137.668" x2="31.627" y2="137.08"/>
	<line style="&st0;" x1="34.61" y1="139.15" x2="33.786" y2="138.592"/>
	<line style="&st0;" x1="36.84" y1="140.557" x2="35.996" y2="140.027"/>
	<line style="&st0;" x1="39.117" y1="141.884" x2="38.255" y2="141.385"/>
	<line style="&st0;" x1="41.438" y1="143.131" x2="40.56" y2="142.662"/>
	<line style="&st0;" x1="43.802" y1="144.297" x2="42.907" y2="143.858"/>
	<line style="&st0;" x1="46.205" y1="145.379" x2="45.296" y2="144.972"/>
	<line style="&st0;" x1="48.645" y1="146.376" x2="47.722" y2="146.002"/>
	<line style="&st0;" x1="51.117" y1="147.288" x2="50.183" y2="146.946"/>
	<line style="&st0;" x1="53.62" y1="148.113" x2="52.674" y2="147.804"/>
	<line style="&st0;" x1="56.15" y1="148.851" x2="55.194" y2="148.574"/>
	<line style="&st0;" x1="58.705" y1="149.499" x2="57.74" y2="149.256"/>
	<line style="&st0;" x1="61.281" y1="150.059" x2="60.308" y2="149.849"/>
	<line style="&st0;" x1="63.875" y1="150.527" x2="62.895" y2="150.352"/>
	<line style="&st0;" x1="66.483" y1="150.904" x2="65.498" y2="150.764"/>
	<line style="&st0;" x1="69.104" y1="151.191" x2="68.113" y2="151.084"/>
	<line style="&st0;" x1="71.732" y1="151.387" x2="70.738" y2="151.313"/>
	<line style="&st0;" x1="74.366" y1="151.49" x2="73.37" y2="151.451"/>
	<line style="&st0;" x1="77.002" y1="151.502" x2="76.005" y2="151.498"/>
	<line style="&st0;" x1="79.637" y1="151.422" x2="78.64" y2="151.452"/>
	<line style="&st0;" x1="82.267" y1="151.25" x2="81.271" y2="151.314"/>
	<line style="&st0;" x1="84.89" y1="150.986" x2="83.896" y2="151.085"/>
	<line style="&st0;" x1="87.501" y1="150.631" x2="86.513" y2="150.764"/>
	<line style="&st0;" x1="90.099" y1="150.184" x2="89.115" y2="150.352"/>
	<line style="&st0;" x1="92.68" y1="149.646" x2="91.702" y2="149.848"/>
	<line style="&st0;" x1="95.239" y1="149.02" x2="94.271" y2="149.255"/>
	<line style="&st0;" x1="97.776" y1="148.304" x2="96.815" y2="148.572"/>
	<line style="&st0;" x1="100.286" y1="147.5" x2="99.336" y2="147.801"/>
	<line style="&st0;" x1="102.767" y1="146.609" x2="101.827" y2="146.943"/>
	<line style="&st0;" x1="105.215" y1="145.633" x2="104.288" y2="145.998"/>
	<line style="&st0;" x1="107.627" y1="144.57" x2="106.714" y2="144.969"/>
	<line style="&st0;" x1="110.001" y1="143.425" x2="109.102" y2="143.855"/>
	<line style="&st0;" x1="112.333" y1="142.197" x2="111.449" y2="142.658"/>
	<line style="&st0;" x1="114.621" y1="140.889" x2="113.755" y2="141.381"/>
	<line style="&st0;" x1="116.862" y1="139.501" x2="116.014" y2="140.023"/>
	<line style="&st0;" x1="119.054" y1="138.036" x2="118.224" y2="138.588"/>
	<line style="&st0;" x1="121.192" y1="136.496" x2="120.382" y2="137.076"/>
	<line style="&st0;" x1="123.275" y1="134.883" x2="122.486" y2="135.49"/>
	<line style="&st0;" x1="125.302" y1="133.197" x2="124.534" y2="133.832"/>
	<line style="&st0;" x1="127.269" y1="131.441" x2="126.522" y2="132.104"/>
	<line style="&st0;" x1="129.173" y1="129.618" x2="128.449" y2="130.307"/>
	<line style="&st0;" x1="131.012" y1="127.729" x2="130.312" y2="128.443"/>
	<line style="&st0;" x1="132.783" y1="125.777" x2="132.11" y2="126.516"/>
	<line style="&st0;" x1="134.485" y1="123.766" x2="133.84" y2="124.526"/>
	<line style="&st0;" x1="136.116" y1="121.695" x2="135.499" y2="122.479"/>
	<line style="&st0;" x1="137.674" y1="119.569" x2="137.085" y2="120.374"/>
	<line style="&st0;" x1="139.157" y1="117.391" x2="138.597" y2="118.215"/>
	<line style="&st0;" x1="140.563" y1="115.162" x2="140.032" y2="116.004"/>
	<line style="&st0;" x1="141.891" y1="112.885" x2="141.39" y2="113.745"/>
	<line style="&st0;" x1="143.139" y1="110.562" x2="142.667" y2="111.439"/>
	<line style="&st0;" x1="144.305" y1="108.198" x2="143.863" y2="109.092"/>
	<line style="&st0;" x1="145.387" y1="105.795" x2="144.977" y2="106.703"/>
	<line style="&st0;" x1="146.384" y1="103.355" x2="146.007" y2="104.277"/>
	<line style="&st0;" x1="147.296" y1="100.883" x2="146.951" y2="101.816"/>
	<line style="&st0;" x1="148.121" y1="98.379" x2="147.809" y2="99.325"/>
	<line style="&st0;" x1="148.858" y1="95.849" x2="148.579" y2="96.805"/>
	<line style="&st0;" x1="149.507" y1="93.293" x2="149.261" y2="94.26"/>
	<line style="&st0;" x1="150.065" y1="90.717" x2="149.854" y2="91.691"/>
	<line style="&st0;" x1="150.533" y1="88.123" x2="150.356" y2="89.104"/>
	<line style="&st0;" x1="150.911" y1="85.515" x2="150.769" y2="86.501"/>
	<line style="&st0;" x1="151.197" y1="82.895" x2="151.09" y2="83.885"/>
	<line style="&st0;" x1="151.393" y1="80.266" x2="151.319" y2="81.26"/>
	<line style="&st0;" x1="151.496" y1="77.632" x2="151.457" y2="78.628"/>
	<line style="&st0;" x1="151.508" y1="74.996" x2="151.503" y2="75.993"/>
	<line style="&st0;" x1="151.428" y1="72.361" x2="151.457" y2="73.358"/>
	<line style="&st0;" x1="151.255" y1="69.731" x2="151.319" y2="70.727"/>
	<line style="&st0;" x1="150.99" y1="67.109" x2="151.09" y2="68.101"/>
	<line style="&st0;" x1="150.635" y1="64.497" x2="150.769" y2="65.485"/>
	<line style="&st0;" x1="150.188" y1="61.899" x2="150.356" y2="62.882"/>
	<line style="&st0;" x1="149.65" y1="59.319" x2="149.854" y2="60.295"/>
	<line style="&st0;" x1="149.023" y1="56.759" x2="149.261" y2="57.728"/>
	<line style="&st0;" x1="148.308" y1="54.222" x2="148.578" y2="55.182"/>
	<line style="&st0;" x1="147.504" y1="51.711" x2="147.807" y2="52.662"/>
	<line style="&st0;" x1="146.612" y1="49.231" x2="146.948" y2="50.17"/>
	<line style="&st0;" x1="145.636" y1="46.783" x2="146.003" y2="47.709"/>
	<line style="&st0;" x1="144.573" y1="44.371" x2="144.973" y2="45.284"/>
	<line style="&st0;" x1="143.428" y1="41.998" x2="143.859" y2="42.896"/>
	<line style="&st0;" x1="142.2" y1="39.665" x2="142.662" y2="40.548"/>
	<line style="&st0;" x1="140.892" y1="37.377" x2="141.384" y2="38.243"/>
	<line style="&st0;" x1="139.504" y1="35.136" x2="140.026" y2="35.984"/>
	<line style="&st0;" x1="138.039" y1="32.944" x2="138.591" y2="33.774"/>
	<line style="&st0;" x1="136.499" y1="30.806" x2="137.079" y2="31.615"/>
	<line style="&st0;" x1="134.885" y1="28.722" x2="135.493" y2="29.511"/>
	<line style="&st0;" x1="133.199" y1="26.696" x2="133.835" y2="27.463"/>
	<line style="&st0;" x1="131.443" y1="24.73" x2="132.106" y2="25.474"/>
	<line style="&st0;" x1="129.62" y1="22.826" x2="130.31" y2="23.547"/>
	<line style="&st0;" x1="127.731" y1="20.987" x2="128.446" y2="21.684"/>
	<line style="&st0;" x1="125.779" y1="19.215" x2="126.519" y2="19.886"/>
	<line style="&st0;" x1="123.768" y1="17.513" x2="124.529" y2="18.157"/>
	<line style="&st0;" x1="121.697" y1="15.881" x2="122.48" y2="16.499"/>
	<line style="&st0;" x1="119.571" y1="14.323" x2="120.376" y2="14.913"/>
	<line style="&st0;" x1="117.392" y1="12.84" x2="118.217" y2="13.401"/>
	<line style="&st0;" x1="115.162" y1="11.434" x2="116.006" y2="11.965"/>
	<line style="&st0;" x1="112.885" y1="10.107" x2="113.747" y2="10.608"/>
	<line style="&st0;" x1="110.563" y1="8.859" x2="111.442" y2="9.331"/>
	<line style="&st0;" x1="108.199" y1="7.694" x2="109.095" y2="8.134"/>
	<line style="&st0;" x1="105.796" y1="6.611" x2="106.706" y2="7.021"/>
	<line style="&st0;" x1="103.356" y1="5.614" x2="104.279" y2="5.991"/>
	<line style="&st0;" x1="100.884" y1="4.702" x2="101.819" y2="5.047"/>
	<line style="&st0;" x1="98.38" y1="3.877" x2="99.328" y2="4.189"/>
	<line style="&st0;" x1="95.85" y1="3.14" x2="96.808" y2="3.418"/>
	<line style="&st0;" x1="93.295" y1="2.491" x2="94.263" y2="2.737"/>
	<line style="&st0;" x1="90.719" y1="1.933" x2="91.694" y2="2.145"/>
	<line style="&st0;" x1="88.124" y1="1.464" x2="89.107" y2="1.642"/>
	<line style="&st0;" x1="85.516" y1="1.086" x2="86.504" y2="1.229"/>
	<line style="&st0;" x1="82.896" y1="0.8" x2="83.888" y2="0.909"/>
	<line style="&st0;" x1="80.267" y1="0.605" x2="81.263" y2="0.679"/>
	<line style="&st0;" x1="77.633" y1="0.502" x2="78.631" y2="0.542"/>
</g>
</svg>
